<svg width="50" height="50" viewBox="0 0 50 50" fill="none" xmlns="http://www.w3.org/2000/svg">
<path d="M0 24.3902C0 12.8926 0 7.14374 3.57187 3.57187C7.14374 0 12.8926 0 24.3902 0H25.6098C37.1074 0 42.8563 0 46.4281 3.57187C50 7.14374 50 12.8926 50 24.3902V25.6098C50 37.1074 50 42.8563 46.4281 46.4281C42.8563 50 37.1074 50 25.6098 50H24.3902C12.8926 50 7.14374 50 3.57187 46.4281C0 42.8563 0 37.1074 0 25.6098V24.3902Z" fill="#E5F4F2"/>
<path opacity="0.2" d="M33.003 16.1967H29.8018C29.3598 16.1967 29.0015 16.555 29.0015 16.997V20.1982C29.0015 20.6402 29.3598 20.9985 29.8018 20.9985H33.003C33.445 20.9985 33.8033 20.6402 33.8033 20.1982V16.997C33.8033 16.555 33.445 16.1967 33.003 16.1967Z" fill="#009379"/>
<path opacity="0.2" d="M16.9973 16.2416H20.1985C20.6153 16.2419 20.9534 16.5806 20.9534 16.9975V20.1987C20.9531 20.6153 20.6151 20.9533 20.1985 20.9536H16.9973C16.5805 20.9536 16.2417 20.6155 16.2415 20.1987V16.9975C16.2415 16.5805 16.5803 16.2416 16.9973 16.2416Z" fill="#009379" stroke="#009379" stroke-width="0.0905107"/>
<path opacity="0.2" d="M29.8022 29.0464H33.0034C33.4202 29.0466 33.7583 29.3854 33.7583 29.8022V33.0034C33.7581 33.4201 33.4201 33.7581 33.0034 33.7583H29.8022C29.3854 33.7583 29.0466 33.4202 29.0464 33.0034V29.8022C29.0464 29.3852 29.3852 29.0464 29.8022 29.0464Z" fill="#009379" stroke="#009379" stroke-width="0.0905107"/>
<path opacity="0.2" d="M16.9973 29.0464H20.1985C20.6153 29.0466 20.9534 29.3854 20.9534 29.8022V33.0034C20.9531 33.4201 20.6151 33.7581 20.1985 33.7583H16.9973C16.5805 33.7583 16.2417 33.4202 16.2415 33.0034V29.8022C16.2415 29.3852 16.5803 29.0464 16.9973 29.0464Z" fill="#009379" stroke="#009379" stroke-width="0.0905107"/>
<path d="M33.003 16.1967H29.8018C29.3598 16.1967 29.0015 16.555 29.0015 16.997V20.1982C29.0015 20.6402 29.3598 20.9985 29.8018 20.9985H33.003C33.445 20.9985 33.8033 20.6402 33.8033 20.1982V16.997C33.8033 16.555 33.445 16.1967 33.003 16.1967Z" stroke="#009379" stroke-width="1.44817" stroke-linecap="round" stroke-linejoin="round"/>
<path d="M20.1981 16.1967H16.9968C16.5548 16.1967 16.1965 16.555 16.1965 16.997V20.1982C16.1965 20.6402 16.5548 20.9985 16.9968 20.9985H20.1981C20.6401 20.9985 20.9984 20.6402 20.9984 20.1982V16.997C20.9984 16.555 20.6401 16.1967 20.1981 16.1967Z" stroke="#009379" stroke-width="1.44817" stroke-linecap="round" stroke-linejoin="round"/>
<path d="M33.003 29.0015H29.8018C29.3598 29.0015 29.0015 29.3598 29.0015 29.8018V33.003C29.0015 33.445 29.3598 33.8033 29.8018 33.8033H33.003C33.445 33.8033 33.8033 33.445 33.8033 33.003V29.8018C33.8033 29.3598 33.445 29.0015 33.003 29.0015Z" stroke="#009379" stroke-width="1.44817" stroke-linecap="round" stroke-linejoin="round"/>
<path d="M20.1981 29.0015H16.9968C16.5548 29.0015 16.1965 29.3598 16.1965 29.8018V33.003C16.1965 33.445 16.5548 33.8033 16.9968 33.8033H20.1981C20.6401 33.8033 20.9984 33.445 20.9984 33.003V29.8018C20.9984 29.3598 20.6401 29.0015 20.1981 29.0015Z" stroke="#009379" stroke-width="1.44817" stroke-linecap="round" stroke-linejoin="round"/>
<path d="M18.5974 29.0016V20.9985" stroke="#009379" stroke-width="1.44817" stroke-linecap="round" stroke-linejoin="round"/>
<path d="M29.0016 31.4025H20.9985" stroke="#009379" stroke-width="1.44817" stroke-linecap="round" stroke-linejoin="round"/>
<path d="M31.4023 20.9985V29.0016" stroke="#009379" stroke-width="1.44817" stroke-linecap="round" stroke-linejoin="round"/>
<path d="M20.9985 18.5975H29.0016" stroke="#009379" stroke-width="1.44817" stroke-linecap="round" stroke-linejoin="round"/>
</svg>
